<svg xmlns="http://www.w3.org/2000/svg" viewBox="0 0 371.52 127.13"><title>seva-logo</title><g id="Layer_2" data-name="Layer 2"><g id="Layer_1-2" data-name="Layer 1"><path d="M0,104.95,19,77C30.37,88.71,42,94.3,52.5,94.3c4.26,0,7.24-1.92,7.24-5.41,0-3.84-1.84-5.06-16.32-11.7C25,68.8,16.32,60.77,16.32,42.78,16.32,19.21,33.91,0,61,0,78.75,0,94.5,7,105.29,18.34l-19,27.94c-7.52-7.51-18.16-13.62-28.66-13.62-4.26,0-7.24,1.4-7.24,4.89,0,3.67,2.13,4.37,15.89,10.65,16.89,7.68,27.67,16.42,27.67,35.1,0,24.62-16.46,43.83-45,43.83A65.35,65.35,0,0,1,0,104.95Z"/><path d="M114.38,2.83h84.29l-7.34,33.44H139.51l-2.68,12.37h48.29l-6.35,29.44H130.47l-3,13.24H180l-7.2,33.44h-85Z"/><path d="M196.91,2.79h37.77l4.41,68.47L274.65,2.79h38.65L243.79,125.62H210.87Z"/><path d="M323.72,2.88h32.81l15,122.06H336.3l-1.7-16.27H300l-8.63,16.27H255.27Zm9.05,77-2.69-29.43L314.67,79.93Z"/></g></g></svg>